<svg xmlns="http://www.w3.org/2000/svg" width="26" height="26" viewBox="0 0 26 26">
    <g fill="#EE4C77" fill-rule="evenodd">
        <path d="M18.799 9.508H9.474V6.7c0-1.021.826-1.848 1.847-1.848h3.218c1.02 0 1.847.827 1.847 1.848v.175a.77.77 0 0 0 .761.761.77.77 0 0 0 .76-.761v-.175a3.387 3.387 0 0 0-3.368-3.37H11.32A3.387 3.387 0 0 0 7.952 6.7V9.53H6.78c-.87 0-1.588.718-1.588 1.588V20.1c0 .87.718 1.589 1.588 1.589h12.02c.87 0 1.587-.719 1.587-1.589v-8.983c0-.891-.718-1.61-1.587-1.61zm.066 10.591c0 .043-.044.066-.066.066H6.8c-.043 0-.066-.043-.066-.066v-8.982c0-.043.044-.066.066-.066h12.02c.044 0 .066.044.066.066V20.1h-.022z"/>
        <path d="M14.517 16.346a1.718 1.718 0 1 1-3.435.001 1.718 1.718 0 0 1 3.435 0"/>
    </g>
</svg>
