<svg xmlns="http://www.w3.org/2000/svg" width="26" height="26" viewBox="0 0 26 26">
    <path fill="#EE4C77" fill-rule="evenodd" stroke="#EE4C77" stroke-width=".64" d="M6.866 7.04c-.961 0-1.746.68-1.746 1.511v7.858c0 .832.785 1.511 1.746 1.511h11.868c.961 0 1.746-.68 1.746-1.511V8.55c0-.832-.785-1.511-1.746-1.511H6.866zm0 .605h11.868c.587 0 1.048.399 1.048.906v.027L12.8 14.622 5.818 8.578V8.55c0-.507.461-.906 1.048-.906zM5.818 9.432l3.597 3.114-3.597 3.114V9.433zm13.964 0v6.122l-3.535-3.06 3.535-3.061zm-4.028 3.489l4.028 3.488c0 .507-.46.906-1.047.906H6.866c-.547 0-.984-.347-1.04-.806l4.084-3.536 2.644 2.29a.389.389 0 0 0 .493 0l2.707-2.343z"/>
</svg>
